<mxfile host="app.diagrams.net" modified="2021-01-25T16:18:07.320Z" agent="5.0 (Windows NT 10.0; Win64; x64) AppleWebKit/537.36 (KHTML, like Gecko) Chrome/87.0.4280.141 Safari/537.36" etag="SSB64S42PDPH3k_-Azm4" version="13.11.0" type="github">
  <diagram id="C5RBs43oDa-KdzZeNtuy" name="Page-1">
    <mxGraphModel dx="1422" dy="738" grid="1" gridSize="10" guides="1" tooltips="1" connect="1" arrows="1" fold="1" page="1" pageScale="1" pageWidth="827" pageHeight="1169" math="0" shadow="0">
      <root>
        <mxCell id="WIyWlLk6GJQsqaUBKTNV-0" />
        <mxCell id="WIyWlLk6GJQsqaUBKTNV-1" parent="WIyWlLk6GJQsqaUBKTNV-0" />
        <mxCell id="7LT265I0hLbw03BCXyow-94" value="&lt;h2&gt;Data fields&lt;/h2&gt;&lt;ul&gt;&lt;li&gt;&lt;span&gt;id&lt;/span&gt;&amp;nbsp;-&amp;nbsp;a unique Id field which represents a (search_term, product_uid) pair&lt;/li&gt;&lt;li&gt;&lt;span&gt;product_uid&lt;/span&gt;- an id for the products&lt;/li&gt;&lt;li&gt;&lt;span&gt;product_title&lt;/span&gt;- the product title&lt;/li&gt;&lt;li&gt;&lt;span&gt;product_description&lt;/span&gt;- the text description of the product (may contain HTML content)&lt;/li&gt;&lt;li&gt;&lt;span&gt;search_term&lt;/span&gt;- the search query&lt;/li&gt;&lt;li&gt;&lt;span&gt;relevance&lt;/span&gt;- the average of the relevance ratings for a given id&lt;/li&gt;&lt;li&gt;&lt;span&gt;name&lt;/span&gt;- an attribute name&lt;/li&gt;&lt;li&gt;&lt;span&gt;value&lt;/span&gt;- the attribute&#39;s value&lt;/li&gt;&lt;/ul&gt;" style="text;html=1;strokeColor=none;fillColor=#7EA6E0;spacing=5;spacingTop=-20;whiteSpace=wrap;overflow=hidden;rounded=0;" vertex="1" parent="WIyWlLk6GJQsqaUBKTNV-1">
          <mxGeometry x="366" y="76" width="424" height="184" as="geometry" />
        </mxCell>
        <mxCell id="7LT265I0hLbw03BCXyow-95" value="&lt;h1&gt;All Data&lt;/h1&gt;" style="rounded=0;whiteSpace=wrap;html=1;" vertex="1" parent="WIyWlLk6GJQsqaUBKTNV-1">
          <mxGeometry x="147" y="185" width="186" height="60" as="geometry" />
        </mxCell>
        <mxCell id="7LT265I0hLbw03BCXyow-96" value="&lt;h1&gt;&lt;font style=&quot;font-size: 36px&quot;&gt;Home Depot Product Search Relevance&lt;/font&gt;&lt;/h1&gt;" style="text;html=1;strokeColor=none;fillColor=none;align=center;verticalAlign=middle;whiteSpace=wrap;rounded=0;" vertex="1" parent="WIyWlLk6GJQsqaUBKTNV-1">
          <mxGeometry x="37" y="20" width="760" height="40" as="geometry" />
        </mxCell>
        <mxCell id="7LT265I0hLbw03BCXyow-97" value="&lt;h1&gt;Training Data&lt;/h1&gt;" style="rounded=0;whiteSpace=wrap;html=1;" vertex="1" parent="WIyWlLk6GJQsqaUBKTNV-1">
          <mxGeometry x="37" y="305" width="186" height="60" as="geometry" />
        </mxCell>
        <mxCell id="7LT265I0hLbw03BCXyow-98" value="&lt;h1&gt;Test Data&lt;/h1&gt;" style="rounded=0;whiteSpace=wrap;html=1;" vertex="1" parent="WIyWlLk6GJQsqaUBKTNV-1">
          <mxGeometry x="255" y="305" width="186" height="60" as="geometry" />
        </mxCell>
        <mxCell id="7LT265I0hLbw03BCXyow-99" value="" style="edgeStyle=orthogonalEdgeStyle;rounded=0;html=1;jettySize=auto;orthogonalLoop=1;fontColor=#FF0000;exitX=0.503;exitY=0.116;exitPerimeter=0;" edge="1" parent="WIyWlLk6GJQsqaUBKTNV-1">
          <mxGeometry relative="1" as="geometry">
            <mxPoint x="248" y="128" as="sourcePoint" />
            <mxPoint x="364" y="168" as="targetPoint" />
            <Array as="points">
              <mxPoint x="308" y="128" />
              <mxPoint x="308" y="168" />
            </Array>
          </mxGeometry>
        </mxCell>
        <mxCell id="7LT265I0hLbw03BCXyow-100" value="" style="shape=singleArrow;whiteSpace=wrap;html=1;arrowWidth=0.4721608479817708;arrowSize=0.23059172677521658;rotation=90;" vertex="1" parent="WIyWlLk6GJQsqaUBKTNV-1">
          <mxGeometry x="187" y="113" width="102" height="30" as="geometry" />
        </mxCell>
        <mxCell id="7LT265I0hLbw03BCXyow-101" style="edgeStyle=orthogonalEdgeStyle;rounded=0;html=1;exitX=0.75;exitY=1;entryX=0.75;entryY=1;jettySize=auto;orthogonalLoop=1;" edge="1" parent="WIyWlLk6GJQsqaUBKTNV-1">
          <mxGeometry relative="1" as="geometry">
            <mxPoint x="666" y="650" as="sourcePoint" />
            <mxPoint x="666" y="650" as="targetPoint" />
          </mxGeometry>
        </mxCell>
        <mxCell id="7LT265I0hLbw03BCXyow-102" value="&lt;h1&gt;Create validation&lt;/h1&gt;&lt;p&gt;&lt;font style=&quot;font-size: 18px&quot;&gt;1. native split:&amp;nbsp;&lt;/font&gt;&lt;/p&gt;&lt;p&gt;&lt;font style=&quot;font-size: 14px&quot;&gt;&amp;nbsp; &amp;nbsp; &amp;nbsp;new training data: 0.31&lt;/font&gt;&lt;/p&gt;&lt;p&gt;&lt;font style=&quot;font-size: 14px&quot;&gt;&amp;nbsp; &amp;nbsp; &amp;nbsp;validation data: 0.69&lt;/font&gt;&lt;/p&gt;&lt;p&gt;&lt;font style=&quot;font-size: 14px&quot;&gt;&lt;br&gt;&lt;/font&gt;&lt;/p&gt;&lt;p&gt;&lt;font style=&quot;font-size: 18px&quot;&gt;2. split data by specific column values&lt;/font&gt;&lt;/p&gt;&lt;p&gt;&lt;br&gt;&lt;/p&gt;" style="text;html=1;strokeColor=none;fillColor=none;spacing=5;spacingTop=-20;whiteSpace=wrap;overflow=hidden;rounded=0;" vertex="1" parent="WIyWlLk6GJQsqaUBKTNV-1">
          <mxGeometry x="49" y="435" width="328" height="145" as="geometry" />
        </mxCell>
        <mxCell id="7LT265I0hLbw03BCXyow-103" value="" style="shape=singleArrow;whiteSpace=wrap;html=1;arrowWidth=0.42367451985677085;arrowSize=0.33082377115885414;rotation=90;" vertex="1" parent="WIyWlLk6GJQsqaUBKTNV-1">
          <mxGeometry x="97" y="389" width="60" height="30" as="geometry" />
        </mxCell>
        <mxCell id="7LT265I0hLbw03BCXyow-104" value="" style="shape=singleArrow;whiteSpace=wrap;html=1;arrowWidth=0.42367451985677085;arrowSize=0.33082377115885414;rotation=130;" vertex="1" parent="WIyWlLk6GJQsqaUBKTNV-1">
          <mxGeometry x="146" y="262" width="60" height="30" as="geometry" />
        </mxCell>
        <mxCell id="7LT265I0hLbw03BCXyow-105" value="" style="shape=singleArrow;whiteSpace=wrap;html=1;arrowWidth=0.42367451985677085;arrowSize=0.33082377115885414;rotation=50;" vertex="1" parent="WIyWlLk6GJQsqaUBKTNV-1">
          <mxGeometry x="287" y="262" width="60" height="30" as="geometry" />
        </mxCell>
        <mxCell id="7LT265I0hLbw03BCXyow-106" value="" style="edgeStyle=elbowEdgeStyle;elbow=horizontal;endArrow=classic;html=1;" edge="1" parent="WIyWlLk6GJQsqaUBKTNV-1">
          <mxGeometry width="50" height="50" relative="1" as="geometry">
            <mxPoint x="225" y="524.5" as="sourcePoint" />
            <mxPoint x="557" y="370" as="targetPoint" />
          </mxGeometry>
        </mxCell>
        <mxCell id="7LT265I0hLbw03BCXyow-107" value="" style="endArrow=classic;html=1;" edge="1" parent="WIyWlLk6GJQsqaUBKTNV-1">
          <mxGeometry width="50" height="50" relative="1" as="geometry">
            <mxPoint x="366" y="565" as="sourcePoint" />
            <mxPoint x="557" y="565" as="targetPoint" />
            <Array as="points">
              <mxPoint x="452" y="565" />
            </Array>
          </mxGeometry>
        </mxCell>
        <mxCell id="7LT265I0hLbw03BCXyow-108" value="" style="group" vertex="1" connectable="0" parent="WIyWlLk6GJQsqaUBKTNV-1">
          <mxGeometry x="449" y="700" width="108" height="39" as="geometry" />
        </mxCell>
        <mxCell id="7LT265I0hLbw03BCXyow-109" value="" style="endArrow=none;html=1;exitX=0.5;exitY=0;" edge="1" parent="7LT265I0hLbw03BCXyow-108">
          <mxGeometry width="50" height="50" relative="1" as="geometry">
            <mxPoint x="46" y="39" as="sourcePoint" />
            <mxPoint as="targetPoint" />
          </mxGeometry>
        </mxCell>
        <mxCell id="7LT265I0hLbw03BCXyow-110" value="&lt;span&gt;proportion&lt;/span&gt;2" style="text;html=1;strokeColor=none;fillColor=none;align=center;verticalAlign=middle;whiteSpace=wrap;rounded=0;" vertex="1" parent="7LT265I0hLbw03BCXyow-108">
          <mxGeometry x="40" y="10" width="68" height="20" as="geometry" />
        </mxCell>
        <mxCell id="7LT265I0hLbw03BCXyow-111" value="" style="group" vertex="1" connectable="0" parent="WIyWlLk6GJQsqaUBKTNV-1">
          <mxGeometry x="34" y="1018" width="703" height="111" as="geometry" />
        </mxCell>
        <mxCell id="7LT265I0hLbw03BCXyow-112" value="" style="edgeStyle=orthogonalEdgeStyle;rounded=0;html=1;jettySize=auto;orthogonalLoop=1;" edge="1" parent="7LT265I0hLbw03BCXyow-111" source="7LT265I0hLbw03BCXyow-113">
          <mxGeometry relative="1" as="geometry">
            <mxPoint x="373" y="15.5" as="targetPoint" />
          </mxGeometry>
        </mxCell>
        <mxCell id="7LT265I0hLbw03BCXyow-113" value="&lt;h1&gt;&lt;font style=&quot;font-size: 18px&quot;&gt;Search_term only in training set&lt;/font&gt;&lt;/h1&gt;" style="rounded=0;whiteSpace=wrap;html=1;" vertex="1" parent="7LT265I0hLbw03BCXyow-111">
          <mxGeometry x="3" width="290" height="31" as="geometry" />
        </mxCell>
        <mxCell id="7LT265I0hLbw03BCXyow-114" value="&lt;h1&gt;&lt;font style=&quot;font-size: 14px&quot;&gt;unique search_term List 4&lt;/font&gt;&lt;/h1&gt;" style="text;html=1;strokeColor=none;fillColor=none;align=center;verticalAlign=middle;whiteSpace=wrap;rounded=0;" vertex="1" parent="7LT265I0hLbw03BCXyow-111">
          <mxGeometry x="367" width="206" height="20" as="geometry" />
        </mxCell>
        <mxCell id="7LT265I0hLbw03BCXyow-115" value="" style="edgeStyle=orthogonalEdgeStyle;rounded=0;html=1;jettySize=auto;orthogonalLoop=1;" edge="1" parent="7LT265I0hLbw03BCXyow-111" source="7LT265I0hLbw03BCXyow-116">
          <mxGeometry relative="1" as="geometry">
            <mxPoint x="503" y="54.5" as="targetPoint" />
          </mxGeometry>
        </mxCell>
        <mxCell id="7LT265I0hLbw03BCXyow-116" value="&lt;h1&gt;&lt;font style=&quot;font-size: 18px&quot;&gt;Search_term in both training and validation set&lt;/font&gt;&lt;/h1&gt;" style="rounded=0;whiteSpace=wrap;html=1;" vertex="1" parent="7LT265I0hLbw03BCXyow-111">
          <mxGeometry x="3" y="39" width="420" height="31" as="geometry" />
        </mxCell>
        <mxCell id="7LT265I0hLbw03BCXyow-117" value="" style="edgeStyle=orthogonalEdgeStyle;rounded=0;html=1;jettySize=auto;orthogonalLoop=1;" edge="1" parent="7LT265I0hLbw03BCXyow-111" source="7LT265I0hLbw03BCXyow-118">
          <mxGeometry relative="1" as="geometry">
            <mxPoint x="373" y="95.5" as="targetPoint" />
          </mxGeometry>
        </mxCell>
        <mxCell id="7LT265I0hLbw03BCXyow-118" value="&lt;h1&gt;&lt;font style=&quot;font-size: 18px&quot;&gt;Search_term in validation set&lt;/font&gt;&lt;/h1&gt;" style="rounded=0;whiteSpace=wrap;html=1;" vertex="1" parent="7LT265I0hLbw03BCXyow-111">
          <mxGeometry y="80" width="293" height="31" as="geometry" />
        </mxCell>
        <mxCell id="7LT265I0hLbw03BCXyow-119" value="&lt;h1&gt;&lt;font style=&quot;font-size: 14px&quot;&gt;unique search_term List 3&lt;/font&gt;&lt;/h1&gt;" style="text;html=1;strokeColor=none;fillColor=none;align=center;verticalAlign=middle;whiteSpace=wrap;rounded=0;" vertex="1" parent="7LT265I0hLbw03BCXyow-111">
          <mxGeometry x="366" y="81" width="206" height="20" as="geometry" />
        </mxCell>
        <mxCell id="7LT265I0hLbw03BCXyow-120" value="&lt;h1&gt;&lt;font style=&quot;font-size: 14px&quot;&gt;unique search_term List 5&lt;/font&gt;&lt;/h1&gt;" style="text;html=1;strokeColor=none;fillColor=none;align=center;verticalAlign=middle;whiteSpace=wrap;rounded=0;" vertex="1" parent="7LT265I0hLbw03BCXyow-111">
          <mxGeometry x="497" y="40" width="206" height="20" as="geometry" />
        </mxCell>
        <mxCell id="7LT265I0hLbw03BCXyow-121" value="" style="group;shadow=0;labelBackgroundColor=none;labelBorderColor=none;fillColor=#99FFFF;" vertex="1" connectable="0" parent="WIyWlLk6GJQsqaUBKTNV-1">
          <mxGeometry x="578" y="270" width="205" height="414" as="geometry" />
        </mxCell>
        <mxCell id="7LT265I0hLbw03BCXyow-122" value="&lt;h1&gt;Pattern&lt;/h1&gt;&lt;p&gt;&lt;font style=&quot;font-size: 18px&quot;&gt;Sample Pattern&lt;/font&gt;&lt;/p&gt;&lt;p&gt;sample of training data =&amp;nbsp;74067&lt;/p&gt;&lt;p&gt;sample of test data =&amp;nbsp;166693&lt;/p&gt;&lt;p&gt;&lt;span style=&quot;letter-spacing: 0px&quot;&gt;proportion = 0.31 : 0.69&lt;/span&gt;&lt;br&gt;&lt;/p&gt;&lt;p&gt;&lt;span style=&quot;letter-spacing: 0px&quot;&gt;&lt;br&gt;&lt;/span&gt;&lt;/p&gt;&lt;p&gt;&lt;span style=&quot;letter-spacing: 0px&quot;&gt;&lt;font style=&quot;font-size: 18px&quot;&gt;Feature Pattern&lt;/font&gt;&lt;/span&gt;&lt;/p&gt;&lt;p&gt;&lt;br&gt;&lt;/p&gt;" style="text;html=1;strokeColor=none;fillColor=none;spacing=5;spacingTop=-20;whiteSpace=wrap;overflow=hidden;rounded=0;" vertex="1" parent="7LT265I0hLbw03BCXyow-121">
          <mxGeometry x="15" width="190" height="147" as="geometry" />
        </mxCell>
        <mxCell id="7LT265I0hLbw03BCXyow-123" value="" style="group" vertex="1" connectable="0" parent="7LT265I0hLbw03BCXyow-121">
          <mxGeometry y="139" width="204" height="130" as="geometry" />
        </mxCell>
        <mxCell id="7LT265I0hLbw03BCXyow-124" value="" style="ellipse;whiteSpace=wrap;html=1;aspect=fixed;" vertex="1" parent="7LT265I0hLbw03BCXyow-123">
          <mxGeometry x="20" y="30" width="80" height="80" as="geometry" />
        </mxCell>
        <mxCell id="7LT265I0hLbw03BCXyow-125" value="" style="ellipse;whiteSpace=wrap;html=1;aspect=fixed;" vertex="1" parent="7LT265I0hLbw03BCXyow-123">
          <mxGeometry x="80" y="30" width="80" height="80" as="geometry" />
        </mxCell>
        <mxCell id="7LT265I0hLbw03BCXyow-126" value="" style="ellipse;whiteSpace=wrap;html=1;" vertex="1" parent="7LT265I0hLbw03BCXyow-123">
          <mxGeometry x="70" y="40" width="39" height="60" as="geometry" />
        </mxCell>
        <mxCell id="7LT265I0hLbw03BCXyow-127" value="2174" style="text;html=1;strokeColor=none;fillColor=none;align=center;verticalAlign=middle;whiteSpace=wrap;rounded=0;" vertex="1" parent="7LT265I0hLbw03BCXyow-123">
          <mxGeometry x="30" y="60" width="40" height="20" as="geometry" />
        </mxCell>
        <mxCell id="7LT265I0hLbw03BCXyow-128" value="9621" style="text;html=1;strokeColor=none;fillColor=none;align=center;verticalAlign=middle;whiteSpace=wrap;rounded=0;" vertex="1" parent="7LT265I0hLbw03BCXyow-123">
          <mxGeometry x="70" y="60" width="40" height="20" as="geometry" />
        </mxCell>
        <mxCell id="7LT265I0hLbw03BCXyow-129" value="12806" style="text;html=1;strokeColor=none;fillColor=none;align=center;verticalAlign=middle;whiteSpace=wrap;rounded=0;" vertex="1" parent="7LT265I0hLbw03BCXyow-123">
          <mxGeometry x="109" y="60" width="40" height="20" as="geometry" />
        </mxCell>
        <mxCell id="7LT265I0hLbw03BCXyow-130" value="training data" style="text;html=1;strokeColor=none;fillColor=none;align=center;verticalAlign=middle;whiteSpace=wrap;rounded=0;" vertex="1" parent="7LT265I0hLbw03BCXyow-123">
          <mxGeometry x="4" y="110" width="80" height="20" as="geometry" />
        </mxCell>
        <mxCell id="7LT265I0hLbw03BCXyow-131" value="test data" style="text;html=1;strokeColor=none;fillColor=none;align=center;verticalAlign=middle;whiteSpace=wrap;rounded=0;" vertex="1" parent="7LT265I0hLbw03BCXyow-123">
          <mxGeometry x="103" y="110" width="80" height="20" as="geometry" />
        </mxCell>
        <mxCell id="7LT265I0hLbw03BCXyow-132" value="&lt;p&gt;search_term&amp;nbsp;coverage&lt;/p&gt;" style="text;html=1;strokeColor=none;fillColor=none;align=center;verticalAlign=middle;whiteSpace=wrap;rounded=0;" vertex="1" parent="7LT265I0hLbw03BCXyow-123">
          <mxGeometry x="5" width="170" height="30" as="geometry" />
        </mxCell>
        <mxCell id="7LT265I0hLbw03BCXyow-133" value="" style="group" vertex="1" connectable="0" parent="7LT265I0hLbw03BCXyow-121">
          <mxGeometry y="284" width="204" height="130" as="geometry" />
        </mxCell>
        <mxCell id="7LT265I0hLbw03BCXyow-134" value="" style="ellipse;whiteSpace=wrap;html=1;aspect=fixed;" vertex="1" parent="7LT265I0hLbw03BCXyow-133">
          <mxGeometry x="20" y="30" width="80" height="80" as="geometry" />
        </mxCell>
        <mxCell id="7LT265I0hLbw03BCXyow-135" value="" style="ellipse;whiteSpace=wrap;html=1;aspect=fixed;" vertex="1" parent="7LT265I0hLbw03BCXyow-133">
          <mxGeometry x="80" y="30" width="80" height="80" as="geometry" />
        </mxCell>
        <mxCell id="7LT265I0hLbw03BCXyow-136" value="" style="ellipse;whiteSpace=wrap;html=1;" vertex="1" parent="7LT265I0hLbw03BCXyow-133">
          <mxGeometry x="70" y="40" width="39" height="60" as="geometry" />
        </mxCell>
        <mxCell id="7LT265I0hLbw03BCXyow-137" value="&lt;p&gt;product_uid coverage&lt;/p&gt;" style="text;html=1;strokeColor=none;fillColor=none;align=center;verticalAlign=middle;whiteSpace=wrap;rounded=0;" vertex="1" parent="7LT265I0hLbw03BCXyow-133">
          <mxGeometry x="5" width="170" height="30" as="geometry" />
        </mxCell>
        <mxCell id="7LT265I0hLbw03BCXyow-138" value="training data" style="text;html=1;strokeColor=none;fillColor=none;align=center;verticalAlign=middle;whiteSpace=wrap;rounded=0;" vertex="1" parent="7LT265I0hLbw03BCXyow-133">
          <mxGeometry x="4" y="110" width="80" height="20" as="geometry" />
        </mxCell>
        <mxCell id="7LT265I0hLbw03BCXyow-139" value="test data" style="text;html=1;strokeColor=none;fillColor=none;align=center;verticalAlign=middle;whiteSpace=wrap;rounded=0;" vertex="1" parent="7LT265I0hLbw03BCXyow-133">
          <mxGeometry x="105" y="110" width="80" height="20" as="geometry" />
        </mxCell>
        <mxCell id="7LT265I0hLbw03BCXyow-140" value="27699" style="text;html=1;strokeColor=none;fillColor=none;align=center;verticalAlign=middle;whiteSpace=wrap;rounded=0;" vertex="1" parent="7LT265I0hLbw03BCXyow-133">
          <mxGeometry x="69" y="60" width="40" height="20" as="geometry" />
        </mxCell>
        <mxCell id="7LT265I0hLbw03BCXyow-141" value="&lt;span&gt;26968&lt;/span&gt;" style="text;html=1;strokeColor=none;fillColor=none;align=center;verticalAlign=middle;whiteSpace=wrap;rounded=0;" vertex="1" parent="7LT265I0hLbw03BCXyow-133">
          <mxGeometry x="29" y="60" width="40" height="20" as="geometry" />
        </mxCell>
        <mxCell id="7LT265I0hLbw03BCXyow-142" value="&lt;span&gt;69761&lt;/span&gt;" style="text;html=1;strokeColor=none;fillColor=none;align=center;verticalAlign=middle;whiteSpace=wrap;rounded=0;" vertex="1" parent="7LT265I0hLbw03BCXyow-133">
          <mxGeometry x="116" y="60" width="40" height="20" as="geometry" />
        </mxCell>
        <mxCell id="7LT265I0hLbw03BCXyow-143" value="" style="group;fontColor=#FF0000;" vertex="1" connectable="0" parent="WIyWlLk6GJQsqaUBKTNV-1">
          <mxGeometry x="395" y="384" width="167" height="45" as="geometry" />
        </mxCell>
        <mxCell id="7LT265I0hLbw03BCXyow-144" value="&lt;font color=&quot;#ff0000&quot;&gt;1. Satisfied Sample pattern&lt;/font&gt;" style="text;html=1;strokeColor=none;fillColor=none;align=center;verticalAlign=middle;whiteSpace=wrap;rounded=0;" vertex="1" parent="7LT265I0hLbw03BCXyow-143">
          <mxGeometry x="1" width="150" height="20" as="geometry" />
        </mxCell>
        <mxCell id="7LT265I0hLbw03BCXyow-145" value="2. Unsatisfied Sample pattern" style="text;html=1;strokeColor=none;fillColor=none;align=center;verticalAlign=middle;whiteSpace=wrap;rounded=0;fontColor=#FF0000;" vertex="1" parent="7LT265I0hLbw03BCXyow-143">
          <mxGeometry y="25" width="167" height="20" as="geometry" />
        </mxCell>
        <mxCell id="7LT265I0hLbw03BCXyow-146" value="1. Satisfied both pattern" style="text;html=1;strokeColor=none;fillColor=none;align=center;verticalAlign=middle;whiteSpace=wrap;rounded=0;fontColor=#FF0000;" vertex="1" parent="WIyWlLk6GJQsqaUBKTNV-1">
          <mxGeometry x="377" y="539" width="167" height="20" as="geometry" />
        </mxCell>
        <mxCell id="7LT265I0hLbw03BCXyow-147" value="" style="shape=singleArrow;whiteSpace=wrap;html=1;arrowWidth=0.4721608479817708;arrowSize=0.23059172677521658;" vertex="1" parent="WIyWlLk6GJQsqaUBKTNV-1">
          <mxGeometry x="476" y="330" width="91" height="30" as="geometry" />
        </mxCell>
        <mxCell id="7LT265I0hLbw03BCXyow-148" value="&lt;span&gt;&lt;font style=&quot;font-size: 24px&quot; color=&quot;#000000&quot;&gt;provide data&lt;/font&gt;&lt;/span&gt;" style="text;html=1;strokeColor=none;fillColor=none;align=center;verticalAlign=middle;whiteSpace=wrap;rounded=0;shadow=0;labelBackgroundColor=none;fontColor=#FF0000;" vertex="1" parent="WIyWlLk6GJQsqaUBKTNV-1">
          <mxGeometry x="66" y="108" width="150" height="20" as="geometry" />
        </mxCell>
        <mxCell id="7LT265I0hLbw03BCXyow-149" value="" style="group" vertex="1" connectable="0" parent="WIyWlLk6GJQsqaUBKTNV-1">
          <mxGeometry x="31" y="590" width="581" height="410" as="geometry" />
        </mxCell>
        <mxCell id="7LT265I0hLbw03BCXyow-150" value="unique search_term List 5" style="swimlane;fontStyle=0;childLayout=stackLayout;horizontal=1;startSize=26;fillColor=none;horizontalStack=0;resizeParent=1;resizeParentMax=0;resizeLast=0;collapsible=1;marginBottom=0;swimlaneFillColor=#ffffff;" vertex="1" parent="7LT265I0hLbw03BCXyow-149">
          <mxGeometry x="224" y="300" width="206" height="110" as="geometry" />
        </mxCell>
        <mxCell id="7LT265I0hLbw03BCXyow-151" value="search_term C           search_term L" style="text;strokeColor=none;fillColor=none;align=left;verticalAlign=top;spacingLeft=4;spacingRight=4;overflow=hidden;rotatable=0;points=[[0,0.5],[1,0.5]];portConstraint=eastwest;" vertex="1" parent="7LT265I0hLbw03BCXyow-150">
          <mxGeometry y="26" width="206" height="26" as="geometry" />
        </mxCell>
        <mxCell id="7LT265I0hLbw03BCXyow-152" value="search_term I " style="text;strokeColor=none;fillColor=none;align=left;verticalAlign=top;spacingLeft=4;spacingRight=4;overflow=hidden;rotatable=0;points=[[0,0.5],[1,0.5]];portConstraint=eastwest;" vertex="1" parent="7LT265I0hLbw03BCXyow-150">
          <mxGeometry y="52" width="206" height="26" as="geometry" />
        </mxCell>
        <mxCell id="7LT265I0hLbw03BCXyow-153" value="search_term K" style="text;strokeColor=none;fillColor=none;align=left;verticalAlign=top;spacingLeft=4;spacingRight=4;overflow=hidden;rotatable=0;points=[[0,0.5],[1,0.5]];portConstraint=eastwest;" vertex="1" parent="7LT265I0hLbw03BCXyow-150">
          <mxGeometry y="78" width="206" height="32" as="geometry" />
        </mxCell>
        <mxCell id="7LT265I0hLbw03BCXyow-154" value="" style="endArrow=none;dashed=1;html=1;" edge="1" parent="7LT265I0hLbw03BCXyow-150">
          <mxGeometry width="50" height="50" relative="1" as="geometry">
            <mxPoint x="154" y="98" as="sourcePoint" />
            <mxPoint x="154" y="58" as="targetPoint" />
          </mxGeometry>
        </mxCell>
        <mxCell id="7LT265I0hLbw03BCXyow-155" value="" style="group" vertex="1" connectable="0" parent="7LT265I0hLbw03BCXyow-149">
          <mxGeometry width="581" height="410" as="geometry" />
        </mxCell>
        <mxCell id="7LT265I0hLbw03BCXyow-156" value="unique search_term List 4" style="swimlane;fontStyle=0;childLayout=stackLayout;horizontal=1;startSize=26;fillColor=none;horizontalStack=0;resizeParent=1;resizeParentMax=0;resizeLast=0;collapsible=1;marginBottom=0;swimlaneFillColor=#ffffff;" vertex="1" parent="7LT265I0hLbw03BCXyow-155">
          <mxGeometry y="300" width="206" height="110" as="geometry" />
        </mxCell>
        <mxCell id="7LT265I0hLbw03BCXyow-157" value="search_term A           search_term J" style="text;strokeColor=none;fillColor=none;align=left;verticalAlign=top;spacingLeft=4;spacingRight=4;overflow=hidden;rotatable=0;points=[[0,0.5],[1,0.5]];portConstraint=eastwest;" vertex="1" parent="7LT265I0hLbw03BCXyow-156">
          <mxGeometry y="26" width="206" height="26" as="geometry" />
        </mxCell>
        <mxCell id="7LT265I0hLbw03BCXyow-158" value="search_term D " style="text;strokeColor=none;fillColor=none;align=left;verticalAlign=top;spacingLeft=4;spacingRight=4;overflow=hidden;rotatable=0;points=[[0,0.5],[1,0.5]];portConstraint=eastwest;" vertex="1" parent="7LT265I0hLbw03BCXyow-156">
          <mxGeometry y="52" width="206" height="26" as="geometry" />
        </mxCell>
        <mxCell id="7LT265I0hLbw03BCXyow-159" value="search_term F" style="text;strokeColor=none;fillColor=none;align=left;verticalAlign=top;spacingLeft=4;spacingRight=4;overflow=hidden;rotatable=0;points=[[0,0.5],[1,0.5]];portConstraint=eastwest;" vertex="1" parent="7LT265I0hLbw03BCXyow-156">
          <mxGeometry y="78" width="206" height="32" as="geometry" />
        </mxCell>
        <mxCell id="7LT265I0hLbw03BCXyow-160" value="" style="endArrow=none;dashed=1;html=1;" edge="1" parent="7LT265I0hLbw03BCXyow-156">
          <mxGeometry width="50" height="50" relative="1" as="geometry">
            <mxPoint x="154" y="98" as="sourcePoint" />
            <mxPoint x="154" y="58" as="targetPoint" />
          </mxGeometry>
        </mxCell>
        <mxCell id="7LT265I0hLbw03BCXyow-161" value="" style="group" vertex="1" connectable="0" parent="7LT265I0hLbw03BCXyow-155">
          <mxGeometry x="22" width="559" height="300" as="geometry" />
        </mxCell>
        <mxCell id="7LT265I0hLbw03BCXyow-162" value="&lt;h1&gt;&lt;font style=&quot;font-size: 18px&quot;&gt;Training Data&lt;/font&gt;&lt;/h1&gt;" style="rounded=0;whiteSpace=wrap;html=1;" vertex="1" parent="7LT265I0hLbw03BCXyow-161">
          <mxGeometry y="10" width="134" height="31" as="geometry" />
        </mxCell>
        <mxCell id="7LT265I0hLbw03BCXyow-163" value="" style="shape=singleArrow;whiteSpace=wrap;html=1;arrowWidth=0.42367451985677085;arrowSize=0.33082377115885414;" vertex="1" parent="7LT265I0hLbw03BCXyow-161">
          <mxGeometry x="144" y="11" width="60" height="30" as="geometry" />
        </mxCell>
        <mxCell id="7LT265I0hLbw03BCXyow-164" value="" style="group" vertex="1" connectable="0" parent="7LT265I0hLbw03BCXyow-161">
          <mxGeometry x="218" width="206" height="110" as="geometry" />
        </mxCell>
        <mxCell id="7LT265I0hLbw03BCXyow-165" value="unique search_term List 1" style="swimlane;fontStyle=0;childLayout=stackLayout;horizontal=1;startSize=26;fillColor=none;horizontalStack=0;resizeParent=1;resizeParentMax=0;resizeLast=0;collapsible=1;marginBottom=0;swimlaneFillColor=#ffffff;" vertex="1" parent="7LT265I0hLbw03BCXyow-164">
          <mxGeometry width="206" height="110" as="geometry" />
        </mxCell>
        <mxCell id="7LT265I0hLbw03BCXyow-166" value="search_term A           search_term D" style="text;strokeColor=none;fillColor=none;align=left;verticalAlign=top;spacingLeft=4;spacingRight=4;overflow=hidden;rotatable=0;points=[[0,0.5],[1,0.5]];portConstraint=eastwest;" vertex="1" parent="7LT265I0hLbw03BCXyow-165">
          <mxGeometry y="26" width="206" height="26" as="geometry" />
        </mxCell>
        <mxCell id="7LT265I0hLbw03BCXyow-167" value="search_term B " style="text;strokeColor=none;fillColor=none;align=left;verticalAlign=top;spacingLeft=4;spacingRight=4;overflow=hidden;rotatable=0;points=[[0,0.5],[1,0.5]];portConstraint=eastwest;" vertex="1" parent="7LT265I0hLbw03BCXyow-165">
          <mxGeometry y="52" width="206" height="26" as="geometry" />
        </mxCell>
        <mxCell id="7LT265I0hLbw03BCXyow-168" value="search_term C" style="text;strokeColor=none;fillColor=none;align=left;verticalAlign=top;spacingLeft=4;spacingRight=4;overflow=hidden;rotatable=0;points=[[0,0.5],[1,0.5]];portConstraint=eastwest;" vertex="1" parent="7LT265I0hLbw03BCXyow-165">
          <mxGeometry y="78" width="206" height="32" as="geometry" />
        </mxCell>
        <mxCell id="7LT265I0hLbw03BCXyow-169" value="" style="endArrow=none;dashed=1;html=1;" edge="1" parent="7LT265I0hLbw03BCXyow-165">
          <mxGeometry width="50" height="50" relative="1" as="geometry">
            <mxPoint x="154" y="98" as="sourcePoint" />
            <mxPoint x="154" y="58" as="targetPoint" />
          </mxGeometry>
        </mxCell>
        <mxCell id="7LT265I0hLbw03BCXyow-170" value="unique search_term List 2" style="swimlane;fontStyle=0;childLayout=stackLayout;horizontal=1;startSize=26;fillColor=none;horizontalStack=0;resizeParent=1;resizeParentMax=0;resizeLast=0;collapsible=1;marginBottom=0;swimlaneFillColor=#ffffff;" vertex="1" parent="7LT265I0hLbw03BCXyow-161">
          <mxGeometry x="88" y="150" width="206" height="110" as="geometry" />
        </mxCell>
        <mxCell id="7LT265I0hLbw03BCXyow-171" value="search_term A           search_term F" style="text;strokeColor=none;fillColor=none;align=left;verticalAlign=top;spacingLeft=4;spacingRight=4;overflow=hidden;rotatable=0;points=[[0,0.5],[1,0.5]];portConstraint=eastwest;" vertex="1" parent="7LT265I0hLbw03BCXyow-170">
          <mxGeometry y="26" width="206" height="26" as="geometry" />
        </mxCell>
        <mxCell id="7LT265I0hLbw03BCXyow-172" value="search_term C " style="text;strokeColor=none;fillColor=none;align=left;verticalAlign=top;spacingLeft=4;spacingRight=4;overflow=hidden;rotatable=0;points=[[0,0.5],[1,0.5]];portConstraint=eastwest;" vertex="1" parent="7LT265I0hLbw03BCXyow-170">
          <mxGeometry y="52" width="206" height="26" as="geometry" />
        </mxCell>
        <mxCell id="7LT265I0hLbw03BCXyow-173" value="search_term D" style="text;strokeColor=none;fillColor=none;align=left;verticalAlign=top;spacingLeft=4;spacingRight=4;overflow=hidden;rotatable=0;points=[[0,0.5],[1,0.5]];portConstraint=eastwest;" vertex="1" parent="7LT265I0hLbw03BCXyow-170">
          <mxGeometry y="78" width="206" height="32" as="geometry" />
        </mxCell>
        <mxCell id="7LT265I0hLbw03BCXyow-174" value="" style="endArrow=none;dashed=1;html=1;" edge="1" parent="7LT265I0hLbw03BCXyow-170">
          <mxGeometry width="50" height="50" relative="1" as="geometry">
            <mxPoint x="154" y="98" as="sourcePoint" />
            <mxPoint x="154" y="58" as="targetPoint" />
          </mxGeometry>
        </mxCell>
        <mxCell id="7LT265I0hLbw03BCXyow-175" value="unique search_term List 3" style="swimlane;fontStyle=0;childLayout=stackLayout;horizontal=1;startSize=26;fillColor=none;horizontalStack=0;resizeParent=1;resizeParentMax=0;resizeLast=0;collapsible=1;marginBottom=0;swimlaneFillColor=#ffffff;" vertex="1" parent="7LT265I0hLbw03BCXyow-161">
          <mxGeometry x="353" y="150" width="206" height="110" as="geometry" />
        </mxCell>
        <mxCell id="7LT265I0hLbw03BCXyow-176" value="search_term B           search_term H" style="text;strokeColor=none;fillColor=none;align=left;verticalAlign=top;spacingLeft=4;spacingRight=4;overflow=hidden;rotatable=0;points=[[0,0.5],[1,0.5]];portConstraint=eastwest;" vertex="1" parent="7LT265I0hLbw03BCXyow-175">
          <mxGeometry y="26" width="206" height="26" as="geometry" />
        </mxCell>
        <mxCell id="7LT265I0hLbw03BCXyow-177" value="search_term E " style="text;strokeColor=none;fillColor=none;align=left;verticalAlign=top;spacingLeft=4;spacingRight=4;overflow=hidden;rotatable=0;points=[[0,0.5],[1,0.5]];portConstraint=eastwest;" vertex="1" parent="7LT265I0hLbw03BCXyow-175">
          <mxGeometry y="52" width="206" height="26" as="geometry" />
        </mxCell>
        <mxCell id="7LT265I0hLbw03BCXyow-178" value="search_term G" style="text;strokeColor=none;fillColor=none;align=left;verticalAlign=top;spacingLeft=4;spacingRight=4;overflow=hidden;rotatable=0;points=[[0,0.5],[1,0.5]];portConstraint=eastwest;" vertex="1" parent="7LT265I0hLbw03BCXyow-175">
          <mxGeometry y="78" width="206" height="32" as="geometry" />
        </mxCell>
        <mxCell id="7LT265I0hLbw03BCXyow-179" value="" style="endArrow=none;dashed=1;html=1;" edge="1" parent="7LT265I0hLbw03BCXyow-175">
          <mxGeometry width="50" height="50" relative="1" as="geometry">
            <mxPoint x="154" y="98" as="sourcePoint" />
            <mxPoint x="154" y="58" as="targetPoint" />
          </mxGeometry>
        </mxCell>
        <mxCell id="7LT265I0hLbw03BCXyow-180" value="" style="endArrow=none;html=1;entryX=0.175;entryY=1;entryPerimeter=0;" edge="1" parent="7LT265I0hLbw03BCXyow-161" target="7LT265I0hLbw03BCXyow-168">
          <mxGeometry width="50" height="50" relative="1" as="geometry">
            <mxPoint x="214" y="150" as="sourcePoint" />
            <mxPoint x="254" y="120" as="targetPoint" />
          </mxGeometry>
        </mxCell>
        <mxCell id="7LT265I0hLbw03BCXyow-181" value="&lt;span&gt;proportion&lt;/span&gt;1" style="text;html=1;strokeColor=none;fillColor=none;align=center;verticalAlign=middle;whiteSpace=wrap;rounded=0;" vertex="1" parent="7LT265I0hLbw03BCXyow-161">
          <mxGeometry x="154" y="120" width="60" height="20" as="geometry" />
        </mxCell>
        <mxCell id="7LT265I0hLbw03BCXyow-182" value="" style="group" vertex="1" connectable="0" parent="7LT265I0hLbw03BCXyow-161">
          <mxGeometry x="44" y="260" width="100" height="40" as="geometry" />
        </mxCell>
        <mxCell id="7LT265I0hLbw03BCXyow-183" value="&lt;span&gt;proportion3&lt;/span&gt;" style="text;html=1;strokeColor=none;fillColor=none;align=center;verticalAlign=middle;whiteSpace=wrap;rounded=0;" vertex="1" parent="7LT265I0hLbw03BCXyow-182">
          <mxGeometry y="10" width="60" height="20" as="geometry" />
        </mxCell>
        <mxCell id="7LT265I0hLbw03BCXyow-184" value="" style="endArrow=none;html=1;entryX=0.175;entryY=1;entryPerimeter=0;" edge="1" parent="7LT265I0hLbw03BCXyow-182">
          <mxGeometry width="50" height="50" relative="1" as="geometry">
            <mxPoint x="60" y="40" as="sourcePoint" />
            <mxPoint x="100" as="targetPoint" />
          </mxGeometry>
        </mxCell>
        <mxCell id="7LT265I0hLbw03BCXyow-185" value="" style="group" vertex="1" connectable="0" parent="7LT265I0hLbw03BCXyow-161">
          <mxGeometry x="234" y="261" width="108" height="39" as="geometry" />
        </mxCell>
        <mxCell id="7LT265I0hLbw03BCXyow-186" value="" style="endArrow=none;html=1;exitX=0.5;exitY=0;" edge="1" parent="7LT265I0hLbw03BCXyow-185">
          <mxGeometry width="50" height="50" relative="1" as="geometry">
            <mxPoint x="46" y="39" as="sourcePoint" />
            <mxPoint as="targetPoint" />
          </mxGeometry>
        </mxCell>
        <mxCell id="7LT265I0hLbw03BCXyow-187" value="&lt;span&gt;proportion4&lt;/span&gt;" style="text;html=1;strokeColor=none;fillColor=none;align=center;verticalAlign=middle;whiteSpace=wrap;rounded=0;" vertex="1" parent="7LT265I0hLbw03BCXyow-185">
          <mxGeometry x="40" y="10" width="68" height="20" as="geometry" />
        </mxCell>
      </root>
    </mxGraphModel>
  </diagram>
</mxfile>
